<?xml version="1.0" encoding="UTF-8"?>
<svg width="18px" height="15px" viewBox="0 0 18 15" version="1.1" xmlns="http://www.w3.org/2000/svg" xmlns:xlink="http://www.w3.org/1999/xlink">
    <!-- Generator: Sketch 53.2 (72643) - https://sketchapp.com -->
    <title>Twitter</title>
    <desc>Created with Sketch.</desc>
    <g id="Symbols" stroke="none" stroke-width="1" fill="none" fill-rule="evenodd">
        <g id="Footer" transform="translate(-1006.000000, -21.000000)" fill="#FFFFFF">
            <g id="Twitter">
                <path d="M1022.15784,24.7358924 C1022.16437,24.8984888 1022.1681,25.0620417 1022.1681,25.226551 C1022.1681,30.2306957 1018.45393,36 1011.66173,36 C1009.57612,36 1007.63509,35.3735255 1006,34.2994325 C1006.28915,34.3338647 1006.58296,34.3520372 1006.88144,34.3520372 C1008.61167,34.3520372 1010.20386,33.7466046 1011.46772,32.7308551 C1009.85128,32.7002487 1008.48762,31.6051138 1008.01845,30.1006185 C1008.24324,30.1455716 1008.47456,30.1694829 1008.71241,30.1694829 C1009.04912,30.1694829 1009.37558,30.1226168 1009.68525,30.0365364 C1007.99606,29.6883887 1006.72381,28.1580692 1006.72381,26.3235988 L1006.72381,26.2757763 C1007.22189,26.5588854 1007.79086,26.7291335 1008.39621,26.7492189 C1007.40564,26.0701396 1006.75365,24.9109227 1006.75365,23.5977173 C1006.75365,22.9033348 1006.93554,22.2529491 1007.2536,21.693426 C1009.07524,23.9841229 1011.79604,25.492444 1014.86475,25.6502582 C1014.80226,25.3728878 1014.76961,25.08404 1014.76961,24.7865842 C1014.76961,22.6957852 1016.42243,21 1018.46233,21 C1019.52472,21 1020.48451,21.4600523 1021.15794,22.1965185 C1021.99927,22.0262705 1022.7893,21.7115985 1023.50285,21.2773704 C1023.22769,22.1611299 1022.64193,22.9033348 1021.87895,23.3719952 C1022.62608,23.2811324 1023.33776,23.0774087 1024,22.776127 C1023.50472,23.535548 1022.87885,24.2021935 1022.15784,24.7358924"></path>
            </g>
        </g>
    </g>
</svg>