<?xml version="1.0" encoding="utf-8"?>
<!-- Generator: Adobe Illustrator 22.1.0, SVG Export Plug-In . SVG Version: 6.00 Build 0)  -->
<svg version="1.1" id="Layer_1" xmlns="http://www.w3.org/2000/svg" xmlns:xlink="http://www.w3.org/1999/xlink" x="0px" y="0px"
	 viewBox="0 0 18 18" style="enable-background:new 0 0 18 18;" xml:space="preserve">
<style type="text/css">
	.st0{display:none;}
	.st1{display:inline;}
	.st2{fill:#FFFFFF;}
</style>
<title>flogo-HexRBG-Wht-58</title>
<desc>Created with Sketch.</desc>
<g id="Symbols" class="st0">
	<g id="Footer" transform="translate(-969.000000, -20.000000)" class="st1">
		<g id="flogo-HexRBG-Wht-58">
			<g transform="translate(969.000000, 20.000000)">
				<path id="Path" class="st2" d="M17,0H1C0.4,0,0,0.4,0,1v16c0,0.5,0.4,1,1,1h8.6v-6.9H7.3V8.3h2.3v-2c0-2.3,1.4-3.6,3.5-3.6
					c0.7,0,1.4,0,2.1,0.1v2.4h-1.4c-1.1,0-1.3,0.5-1.3,1.3v1.7h2.7l-0.4,2.7h-2.3V18H17c0.5,0,1-0.4,1-1V1C18,0.4,17.6,0,17,0z"/>
			</g>
		</g>
	</g>
</g>
<path class="st2" d="M16.4,3.1C16.2,3,16,3,15.8,3.1c-1.2,0.5-2.5,0-3-1.2c-0.1-0.3-0.2-0.6-0.2-1c0-0.2-0.1-0.3-0.2-0.5
	c-0.1-0.1-0.3-0.2-0.5-0.2H9.3c-0.4,0-0.7,0.3-0.7,0.7v11.3c0,0.9-0.7,1.7-1.7,1.7s-1.7-0.7-1.7-1.7s0.7-1.7,1.7-1.7
	c0.4,0,0.7-0.3,0.7-0.7V7.2c0-0.4-0.3-0.7-0.7-0.7c-3.1,0-5.6,2.5-5.6,5.6c0,1.2,0.4,2.3,1.1,3.3c0.1,0.2,0.3,0.3,0.5,0.3
	c0.1,0,0.3-0.1,0.4-0.2c0.3-0.2,0.4-0.6,0.2-0.9c0,0,0,0,0,0c-0.5-0.7-0.8-1.6-0.8-2.5c0-2.1,1.5-3.9,3.6-4.2v1.3
	c-1.6,0.4-2.6,2-2.2,3.6c0.4,1.6,2,2.6,3.6,2.2c1.3-0.3,2.3-1.5,2.3-2.9V1.5h1.4c0.3,1.8,1.8,3.1,3.6,3.1c0.2,0,0.3,0,0.5,0v1.3
	c-1.1,0.2-2.2,0-3.1-0.5c-0.2-0.1-0.5-0.1-0.7,0c-0.2,0.1-0.3,0.3-0.3,0.6v6.3c0,2.4-1.9,4.3-4.3,4.3c-0.6,0-1.1-0.1-1.6-0.3
	c-0.3-0.1-0.7,0.1-0.8,0.4c-0.1,0.3,0,0.7,0.3,0.8c0.7,0.3,1.4,0.4,2.2,0.4c2.9,0,5.4-2.3,5.6-5.2c0,0,0-0.1,0-0.1V6.9
	C13.7,7.3,15,7.3,16.2,7c0.3-0.1,0.5-0.4,0.5-0.7V3.7C16.7,3.5,16.6,3.3,16.4,3.1z"/>
</svg>
