<?xml version="1.0" encoding="UTF-8"?>
<svg width="18px" height="18px" viewBox="0 0 18 18" version="1.1" xmlns="http://www.w3.org/2000/svg" xmlns:xlink="http://www.w3.org/1999/xlink">
    <!-- Generator: Sketch 53.2 (72643) - https://sketchapp.com -->
    <title>flogo-HexRBG-Wht-58</title>
    <desc>Created with Sketch.</desc>
    <g id="Symbols" stroke="none" stroke-width="1" fill="none" fill-rule="evenodd">
        <g id="Footer" transform="translate(-969.000000, -20.000000)" fill="#FFFFFF" fill-rule="nonzero">
            <g id="flogo-HexRBG-Wht-58">
                <g transform="translate(969.000000, 20.000000)">
                    <path d="M17.0052632,0 L0.994736842,0 C0.445358854,-3.36396997e-17 6.72793995e-17,0.445358854 0,0.994736842 L0,17.0052632 C6.72793995e-17,17.5546411 0.445358854,18 0.994736842,18 L9.61578947,18 L9.61578947,11.0526316 L7.26315789,11.0526316 L7.26315789,8.31473684 L9.60315789,8.31473684 L9.60315789,6.31578947 C9.60315789,3.98842105 11.0210526,2.72210526 13.0957895,2.72210526 C13.800592,2.72419932 14.50477,2.76425736 15.2052632,2.84210526 L15.2052632,5.27052632 L13.7715789,5.27052632 C12.6442105,5.27052632 12.4263158,5.80421053 12.4263158,6.59052632 L12.4263158,8.32736842 L15.1263158,8.32736842 L14.7757895,11.0526316 L12.4263158,11.0526316 L12.4263158,18 L17.0052632,18 C17.5546411,18 18,17.5546411 18,17.0052632 L18,0.994736842 C18,0.445358854 17.5546411,3.36396997e-17 17.0052632,0 Z" id="Path"></path>
                </g>
            </g>
        </g>
    </g>
</svg>