<?xml version="1.0" encoding="utf-8"?>
<!-- Generator: Adobe Illustrator 24.2.3, SVG Export Plug-In . SVG Version: 6.00 Build 0)  -->
<svg version="1.1" id="Layer_1" xmlns="http://www.w3.org/2000/svg" xmlns:xlink="http://www.w3.org/1999/xlink" x="0px" y="0px"
	 width="20px" height="17.3px" viewBox="0 0 20 17.3" style="enable-background:new 0 0 20 17.3;" xml:space="preserve">
<style type="text/css">
	.st0{fill:#FFFFFF;}
</style>
<path class="st0" d="M17.7,3.6l-1.4,4.2c0.3,0.7,0.4,1.4,0.4,2.2c0,2-0.9,3.7-2.2,5l2.3,2.4c2-1.8,3.2-4.4,3.2-7.3
	C20,7.6,19.1,5.3,17.7,3.6z"/>
<path class="st0" d="M18.5,1.3L18.5,1.3L17.2,3l-1.9,2.6l-2.8,3.7c0,0.1,0,0.2,0.1,0.3c0.2,1.3-0.6,2.6-1.9,2.9
	c-0.1,0-0.2,0-0.2,0.1h0c-1.4,0.2-2.7-0.8-2.9-2.2C7.2,9,8.2,7.7,9.6,7.5c0.2,0,0.5,0,0.7,0l2.6-2l1.1-0.8c-1.1-0.8-2.5-1.3-3.9-1.3
	c-3.7,0-6.7,3-6.7,6.7c0,2,0.9,3.7,2.2,5l-2.3,2.4C1.2,15.5,0,12.9,0,10C0,4.5,4.5,0,10,0c2.6,0,4.9,1,6.6,2.5l0,0l0.5-0.4l1.2-0.9
	C18.4,1.2,18.5,1.3,18.5,1.3z"/>
</svg>
