<?xml version="1.0" encoding="UTF-8"?>
<svg width="18px" height="17px" viewBox="0 0 18 17" version="1.1" xmlns="http://www.w3.org/2000/svg" xmlns:xlink="http://www.w3.org/1999/xlink">
    <!-- Generator: Sketch 53.2 (72643) - https://sketchapp.com -->
    <title>Group 6</title>
    <desc>Created with Sketch.</desc>
    <g id="Symbols" stroke="none" stroke-width="1" fill="none" fill-rule="evenodd">
        <g id="Footer" transform="translate(-1168.000000, -20.000000)" fill="#FFFFFF">
            <g id="Group-6">
                <g transform="translate(1168.000000, 20.000000)">
                    <path d="M9.111355,16.781465 C9.065905,16.781465 9.021305,16.780215 8.976655,16.778065 L8.976555,16.778065 C8.948105,16.780315 8.918355,16.781465 8.888605,16.781465 C7.844355,16.781465 7.174105,16.307715 6.525955,15.849465 C6.078455,15.533215 5.656155,15.234715 5.158555,15.151865 C4.915755,15.111665 4.674055,15.091215 4.440505,15.091215 C4.019805,15.091215 3.687855,15.156215 3.445505,15.203565 C3.298255,15.232465 3.171205,15.257215 3.074705,15.257215 C2.973805,15.257215 2.864455,15.235365 2.817005,15.073065 C2.775705,14.932465 2.745855,14.796265 2.717155,14.664515 C2.643105,14.325465 2.590555,14.116915 2.448455,14.095115 C0.792255,13.839315 0.318205,13.490465 0.212505,13.242915 C0.197555,13.207515 0.189055,13.172065 0.187005,13.136965 C0.181655,13.041915 0.249005,12.957915 0.342955,12.942615 C2.888955,12.523365 4.030705,9.921165 4.078105,9.810665 C4.079405,9.807615 4.080755,9.804665 4.082155,9.801615 C4.238005,9.485815 4.268505,9.211665 4.173155,8.987015 C3.998455,8.575265 3.428605,8.394265 3.051405,8.274615 C2.959105,8.245415 2.871605,8.217815 2.802605,8.190565 C2.049905,7.892965 1.987305,7.587515 2.016805,7.431865 C2.067305,7.166615 2.421755,6.981765 2.708455,6.981765 C2.787055,6.981765 2.856255,6.995715 2.914455,7.022865 C3.253055,7.181515 3.558205,7.261865 3.821555,7.261865 C4.185355,7.261865 4.344155,7.108965 4.363555,7.088915 C4.354305,6.916615 4.342855,6.736665 4.331155,6.550965 C4.255305,5.347215 4.161355,3.851565 4.542155,2.997815 C5.683505,0.438715 8.103905,0.239865 8.818505,0.239865 C8.836805,0.239865 9.131805,0.236715 9.131805,0.236715 L9.174105,0.236565 C9.890405,0.236565 12.316005,0.435715 13.458005,2.996265 C13.838905,3.850465 13.744705,5.347415 13.668755,6.550215 L13.665605,6.602515 C13.655105,6.770015 13.644905,6.932765 13.636405,7.088665 C13.654605,7.107215 13.800705,7.247815 14.130505,7.260465 L14.130855,7.260465 C14.381505,7.250915 14.669605,7.170965 14.985755,7.022865 C15.078405,6.979615 15.181305,6.970465 15.251305,6.970465 C15.358355,6.970465 15.466805,6.991165 15.556905,7.028765 L15.562305,7.030965 C15.818055,7.121665 15.985555,7.300865 15.989155,7.488165 C15.992505,7.664515 15.857855,7.929665 15.197355,8.190565 C15.128955,8.217465 15.041455,8.245215 14.948805,8.274615 C14.571205,8.394465 14.001505,8.575265 13.826955,8.986915 C13.731455,9.211565 13.762055,9.485465 13.917805,9.801415 C13.919205,9.804465 13.920755,9.807465 13.921955,9.810665 C13.969355,9.921065 15.110055,12.522515 17.657205,12.942265 C17.751255,12.957715 17.818405,13.041615 17.813255,13.136765 C17.811155,13.172465 17.802455,13.208415 17.787205,13.243315 C17.682155,13.489065 17.208505,13.837465 15.551705,14.093465 C15.416355,14.114215 15.363855,14.290665 15.283105,14.660465 C15.253755,14.795015 15.223955,14.927265 15.183055,15.066315 C15.147805,15.186965 15.072555,15.243415 14.946105,15.243415 L14.925505,15.243415 C14.837705,15.243415 14.712905,15.227715 14.554755,15.196665 C14.274255,15.141765 13.959755,15.091215 13.559655,15.091215 C13.325955,15.091215 13.084205,15.111665 12.841255,15.151865 C12.344205,15.234715 11.922155,15.532665 11.475455,15.848465 C10.826055,16.307715 10.155905,16.781465 9.111355,16.781465" id="Fill-1"></path>
                </g>
            </g>
        </g>
    </g>
</svg>