<?xml version="1.0" encoding="UTF-8"?>
<svg width="20px" height="20px" viewBox="0 0 20 20" version="1.1" xmlns="http://www.w3.org/2000/svg" xmlns:xlink="http://www.w3.org/1999/xlink">
    <!-- Generator: Sketch 53.2 (72643) - https://sketchapp.com -->
    <title>iconfinder_dailymotion-01-01_3066995</title>
    <desc>Created with Sketch.</desc>
    <g id="Symbols" stroke="none" stroke-width="1" fill="none" fill-rule="evenodd">
        <g id="Footer" transform="translate(-1088.000000, -19.000000)" fill="#FFFFFF">
            <g id="iconfinder_dailymotion-01-01_3066995">
                <g transform="translate(1088.000000, 19.000000)">
                    <g id="Background">
                        <path d="M19.1954341,6.10199024 C18.6923122,4.91229268 17.9721366,3.84388293 17.0548488,2.92649756 C16.137561,2.00909268 15.0692488,1.28876098 13.8795902,0.785502439 C12.6476878,0.26435122 11.3393171,7.80487805e-05 9.9902439,0 C8.64187317,0 7.33356098,0.264195122 6.10167805,0.785229268 C4.91203902,1.28839024 3.84370732,2.00862439 2.92636098,2.9259122 C2.00901463,3.8432 1.28872195,4.91149268 0.785482927,6.10109268 C0.26435122,7.3329561 7.80487805e-05,8.64126829 -3.30872245e-24,9.98965854 C-7.80487805e-05,11.3381268 0.264058537,12.6465366 0.785053659,13.8785171 C1.28817561,15.0682341 2.00839024,16.1366244 2.92567805,17.0539902 C3.84296585,17.9714146 4.91127805,18.6917463 6.10093659,19.1950049 C7.33285854,19.7161366 8.64122927,19.9804293 9.99016585,19.9805073 L9.99034146,19.9805073 C11.3387122,19.9805073 12.6469854,19.7163122 13.8788878,19.195278 C15.0685268,18.6921171 16.136839,17.9718829 17.0541659,17.0546146 C17.9714927,16.1373463 18.6918049,15.0690537 19.1950439,13.8794341 C19.7161756,12.6475512 19.9804293,11.3392195 19.9805073,9.99084878 C19.9805659,8.64236098 19.7164293,7.33397073 19.1954341,6.10199024 Z M9.99032195,19.0503024 L9.98973659,19.0503024 C7.56971707,19.0501659 5.29457561,18.1076098 3.58343415,16.3962732 C1.87233171,14.6849561 0.93004878,12.4097366 0.930185366,9.98971707 C0.930478049,4.99428293 4.99480976,0.930204878 9.99079024,0.930204878 C12.4108098,0.930341463 14.6859317,1.87287805 16.3970341,3.58419512 C18.1081561,5.29553171 19.0504195,7.57075122 19.0502829,9.99077073 C19.0500098,14.9862049 14.9857171,19.0503024 9.99032195,19.0503024 Z" id="Shape"></path>
                    </g>
                    <g id="Dailymotion" transform="translate(4.741463, 3.121951)">
                        <path d="M6.73434146,0.556097561 L6.73434146,4.29594146 C6.73434146,4.29594146 5.77174634,2.95609756 3.85955122,3.24878049 C3.03475122,3.37502439 2.20673171,3.72087805 1.5704,4.26628293 C1.07498537,4.69086829 0.639297561,5.20216585 0.3744,5.80310244 C0.216507317,6.16122927 0.0924292683,6.57498537 0.0445658537,6.96439024 C-0.147921951,8.53059512 0.435082927,10.3208 1.76040976,11.2513951 C2.1380878,11.5166049 2.61869268,11.7938146 3.06442927,11.9222049 C3.92220488,12.1693268 4.8580878,12.1565073 5.69106341,11.824761 C5.91765854,11.7345171 6.13045854,11.6120976 6.32862439,11.4703415 C6.41223415,11.4105561 6.8352,11.144839 6.8352,11.0439024 L6.83194146,12.0292683 L9.31812683,12.0243902 L9.31812683,0.00487804878 L6.73434146,0.556097561 Z M4.69890732,9.8057561 C3.50269268,9.8057561 2.53305366,8.83607805 2.53305366,7.63990244 C2.53305366,6.44372683 3.50269268,5.47404878 4.69890732,5.47404878 C5.89506341,5.47404878 6.86476098,6.44372683 6.86476098,7.63990244 C6.86476098,8.83607805 5.89506341,9.8057561 4.69890732,9.8057561 Z" id="Dailymotion_1_"></path>
                    </g>
                </g>
            </g>
        </g>
    </g>
</svg>